<svg width="65" height="53" viewBox="0 0 65 53" fill="none" xmlns="http://www.w3.org/2000/svg">
<path d="M0 8C0 5.19974 0 3.79961 0.544967 2.73005C1.02433 1.78924 1.78924 1.02434 2.73005 0.544969C3.79961 1.15047e-06 5.19934 1.21611e-06 7.99882 1.34737e-06C10.7732 1.47746e-06 13.7998 1.21509e-06 16.25 0C22.5 -3.09944e-06 14.5 6.5 32.5 6.5C50.5 6.5 42.404 0 48.75 0C51.2254 0 54.2421 0 57.0012 0C59.8007 0 61.2004 0 62.27 0.544967C63.2108 1.02433 63.9757 1.78924 64.455 2.73005C65 3.79961 65 5.19974 65 8V45C65 47.8003 65 49.2004 64.455 50.27C63.9757 51.2108 63.2108 51.9757 62.27 52.455C61.2004 53 59.8004 53 57.0004 53C54.1433 53 51.0625 53 48.75 53C43 53 52 46.5 32.5 46.5C13 46.5 23 53 16.25 53C13.6733 53 10.6958 53 7.99901 53C5.19941 53 3.79961 53 2.73005 52.455C1.78924 51.9757 1.02433 51.2108 0.544967 50.27C0 49.2004 0 47.8003 0 45V8Z" fill="black"/>
<rect x="17" y="15" width="32" height="23" rx="5" fill="#76C6FF"/>
<rect x="5" y="11" width="7" height="7" rx="3.5" fill="#0094FF"/>
<rect x="5" y="23" width="7" height="7" rx="3.5" fill="#0094FF"/>
<rect x="5" y="35" width="7" height="7" rx="3.5" fill="#0094FF"/>
<rect x="54" y="11" width="7" height="7" rx="3.5" fill="#0094FF"/>
<rect x="54" y="23" width="7" height="7" rx="3.5" fill="#0094FF"/>
<rect x="54" y="35" width="7" height="7" rx="3.5" fill="#0094FF"/>
</svg>
